<svg xmlns="http://www.w3.org/2000/svg" viewBox="0 0 600 450" width="100%" height="100%">
  <defs>
    <linearGradient id="vrfCabinet" x1="0%" y1="0%" x2="100%" y2="0%">
      <stop offset="0%" stop-color="#334155"/>
      <stop offset="30%" stop-color="#475569"/>
      <stop offset="100%" stop-color="#1e293b"/>
    </linearGradient>
    <linearGradient id="grilleGrad" x1="0%" y1="0%" x2="0%" y2="100%">
      <stop offset="0%" stop-color="#0f172a"/>
      <stop offset="100%" stop-color="#1e293b"/>
    </linearGradient>
  </defs>
  <rect width="600" height="450" rx="16" fill="#f8fafc"/>
  <rect x="50" y="370" width="500" height="20" rx="4" fill="#cbd5e1" opacity="0.6"/>

  <!-- VRF Unit 1 (Large Master) -->
  <g transform="translate(100, 70)">
    <!-- Base feet -->
    <rect x="20" y="300" width="40" height="15" rx="3" fill="#0f172a"/>
    <rect x="180" y="300" width="40" height="15" rx="3" fill="#0f172a"/>
    <!-- Main Chassis -->
    <rect x="10" y="10" width="220" height="295" rx="8" fill="url(#vrfCabinet)" stroke="#64748b" stroke-width="1.5"/>
    <!-- Top Fan Discharge Cowl -->
    <rect x="30" y="25" width="180" height="85" rx="42" fill="url(#grilleGrad)" stroke="#64748b" stroke-width="2"/>
    <circle cx="120" cy="67" r="32" fill="#0f172a" stroke="#38bdf8" stroke-width="1.5"/>
    <!-- Fan Blade lines -->
    <line x1="120" y1="35" x2="120" y2="99" stroke="#94a3b8" stroke-width="2"/>
    <line x1="88" y1="67" x2="152" y2="67" stroke="#94a3b8" stroke-width="2"/>

    <!-- Middle Divider & Hitachi Logo Plate -->
    <rect x="25" y="125" width="190" height="30" rx="4" fill="#0f172a" stroke="#475569" stroke-width="1"/>
    <text x="120" y="145" font-family="'Plus Jakarta Sans', sans-serif" font-weight="900" font-size="13" fill="#e60012" text-anchor="middle" letter-spacing="1">HITACHI</text>

    <!-- Lower Heat Exchanger Coil Louvers -->
    <rect x="25" y="165" width="190" height="125" rx="4" fill="#1e293b"/>
    <g stroke="#64748b" stroke-width="1.5">
      <line x1="35" y1="178" x2="205" y2="178"/><line x1="35" y1="190" x2="205" y2="190"/><line x1="35" y1="202" x2="205" y2="202"/><line x1="35" y1="214" x2="205" y2="214"/><line x1="35" y1="226" x2="205" y2="226"/><line x1="35" y1="238" x2="205" y2="238"/><line x1="35" y1="250" x2="205" y2="250"/><line x1="35" y1="262" x2="205" y2="262"/><line x1="35" y1="274" x2="205" y2="274"/>
    </g>

    <!-- VRF Badge -->
    <rect x="35" y="260" width="70" height="18" rx="3" fill="#e60012"/>
    <text x="70" y="273" font-family="sans-serif" font-size="9" font-weight="bold" fill="#ffffff" text-anchor="middle">SET-FREE</text>
  </g>

  <!-- VRF Unit 2 (Slave Modular Unit Connected) -->
  <g transform="translate(320, 100)">
    <!-- Base feet -->
    <rect x="20" y="270" width="35" height="15" rx="3" fill="#0f172a"/>
    <rect x="145" y="270" width="35" height="15" rx="3" fill="#0f172a"/>
    <!-- Main Chassis -->
    <rect x="10" y="10" width="180" height="265" rx="8" fill="url(#vrfCabinet)" stroke="#64748b" stroke-width="1.5"/>
    <!-- Top Fan Cowl -->
    <circle cx="100" cy="65" r="40" fill="url(#grilleGrad)" stroke="#64748b" stroke-width="2"/>
    <circle cx="100" cy="65" r="22" fill="#0f172a" stroke="#38bdf8" stroke-width="1.5"/>

    <!-- Heat Exchanger Louvers -->
    <rect x="25" y="130" width="150" height="130" rx="4" fill="#1e293b"/>
    <g stroke="#64748b" stroke-width="1.5">
      <line x1="35" y1="142" x2="165" y2="142"/><line x1="35" y1="154" x2="165" y2="154"/><line x1="35" y1="166" x2="165" y2="166"/><line x1="35" y1="178" x2="165" y2="178"/><line x1="35" y1="190" x2="165" y2="190"/><line x1="35" y1="202" x2="165" y2="202"/><line x1="35" y1="214" x2="165" y2="214"/><line x1="35" y1="226" x2="165" y2="226"/><line x1="35" y1="238" x2="165" y2="238"/>
    </g>
  </g>

  <!-- Connecting Refrigerant Piping between units -->
  <path d="M 310 240 L 330 240 M 310 260 L 330 260" stroke="#d97706" stroke-width="5" stroke-linecap="round"/>
</svg>